<svg width="160" height="160" viewBox="0 0 160 160" fill="none" xmlns="http://www.w3.org/2000/svg">
<g clip-path="url(#clip0_2257_186)">
<path d="M80.036 160.072C124.239 160.072 160.072 124.239 160.072 80.036C160.072 35.8333 124.239 0 80.036 0C35.8333 0 0 35.8333 0 80.036C0 124.239 35.8333 160.072 80.036 160.072Z" fill="black"/>
<g clip-path="url(#clip1_2257_186)">
<path d="M56.9534 128.072C57.6725 128.072 58.3916 128.144 59.0388 128.36V129.87C58.3916 129.654 57.7444 129.582 57.0972 129.582C56.3062 129.582 55.659 129.798 55.2275 130.157C54.7961 130.517 54.5803 131.092 54.5803 131.739C54.5803 132.458 54.7961 133.034 55.2994 133.393C55.7309 133.753 56.3781 133.969 57.0972 133.969C57.6725 133.969 58.3197 133.825 59.1107 133.609V135.191C58.3916 135.335 57.6725 135.407 56.9534 135.407C55.7309 135.407 54.7961 135.119 54.0051 134.472C53.214 133.897 52.8545 132.962 52.8545 131.739C52.8545 131.164 52.9983 130.589 53.214 130.085C53.4298 129.582 53.7893 129.222 54.1489 128.935C54.5084 128.647 54.9399 128.431 55.4433 128.288C55.9466 128.144 56.3781 128.072 56.9534 128.072Z" fill="white"/>
<path d="M65.6546 129.654H61.8434V131.02H65.2951V132.386H61.8434V133.897H65.7265V135.335H60.1895V128.288H65.6546V129.654Z" fill="white"/>
<path d="M73.493 135.191H71.4076C70.8324 134.256 70.2571 133.465 69.7537 132.962H68.6032V135.191H66.9492V128.144H70.2571C70.5447 128.144 70.8324 128.144 71.12 128.216C71.4076 128.288 71.6234 128.36 71.911 128.431C72.1987 128.503 72.4144 128.647 72.5582 128.863C72.7739 129.007 72.9178 129.294 72.9897 129.51C73.1335 129.798 73.1335 130.085 73.1335 130.517C73.1335 131.02 72.9897 131.452 72.6301 131.883C72.3425 132.243 71.911 132.53 71.4076 132.602C72.1987 133.393 72.8458 134.256 73.493 135.191ZM68.6751 131.595H69.9694C70.4728 131.595 70.8324 131.524 71.0481 131.38C71.2638 131.236 71.4076 130.948 71.4076 130.589C71.4076 129.942 70.9043 129.654 69.8975 129.654H68.6032V131.595H68.6751Z" fill="white"/>
<path d="M80.1087 129.654H77.8076V135.263H76.1537V129.654H73.8525V128.216H80.1087V129.654Z" fill="white"/>
<path d="M82.7692 135.191H81.1152V128.144H82.7692V135.191Z" fill="white"/>
<path d="M89.7445 129.654H85.9332V131.38H89.3849V132.818H85.9332V135.263H84.2793V128.216H89.7445V129.654Z" fill="white"/>
<path d="M92.5485 135.191H90.8945V128.144H92.5485V135.191Z" fill="white"/>
<path d="M99.5238 129.654H95.7125V131.02H99.1642V132.386H95.7125V133.897H99.5957V135.335H94.0586V128.288H99.5238V129.654Z" fill="white"/>
<path d="M100.818 128.216H103.623C104.126 128.216 104.63 128.288 105.061 128.36C105.493 128.503 105.924 128.647 106.284 128.863C106.643 129.079 106.931 129.438 107.146 129.942C107.362 130.373 107.434 130.948 107.434 131.595C107.434 132.243 107.362 132.818 107.146 133.249C106.931 133.753 106.643 134.112 106.284 134.4C105.924 134.688 105.493 134.903 105.061 134.975C104.63 135.047 104.054 135.191 103.551 135.191H100.818V128.216ZM102.544 129.654V133.825H103.551C104.989 133.825 105.708 133.106 105.708 131.667C105.708 131.02 105.493 130.517 105.133 130.157C104.773 129.798 104.27 129.654 103.551 129.654H102.544Z" fill="white"/>
<path d="M111.533 82.9843C105.708 75.8652 93.3393 70.9753 93.3393 70.9753H93.1236C93.1236 71.0473 93.0517 71.0473 93.0517 71.1192C90.3191 74.7866 86.0045 77.2315 81.0427 77.5192C80.9708 77.5192 80.8989 77.5192 80.827 77.5192C80.5393 77.5192 80.3236 77.5192 80.036 77.5192C79.7483 77.5192 79.5326 77.5192 79.245 77.5192C79.1731 77.5192 79.1011 77.5192 79.0292 77.5192C74.0674 77.1596 69.7528 74.7147 66.9483 71.1192C66.9483 71.0473 66.8764 71.0473 66.8764 70.9753H66.6607C66.6607 70.9753 54.2922 75.8652 48.4674 82.9843C42.6427 90.0315 43.7214 98.1574 43.7214 98.1574C43.7214 99.9551 50.3371 101.465 60.3326 102.4L67.0202 102.903C68.818 102.975 70.7596 103.047 72.7011 103.119C74.9304 103.191 77.2315 103.191 79.6045 103.191C79.7483 103.191 79.8202 103.191 79.9641 103.191C80.1079 103.191 80.1798 103.191 80.3236 103.191C82.6966 103.191 84.9978 103.191 87.227 103.119C89.1686 103.047 91.1101 102.975 92.9079 102.903L99.5955 102.4C109.591 101.465 116.207 99.9551 116.207 98.1574C116.279 98.0855 117.357 90.0315 111.533 82.9843Z" fill="white"/>
<path d="M83.4873 49.2584C95.6003 49.2584 105.42 46.876 105.42 43.9371C105.42 40.9982 95.6003 38.6157 83.4873 38.6157C71.3742 38.6157 61.5547 40.9982 61.5547 43.9371C61.5547 46.876 71.3742 49.2584 83.4873 49.2584Z" fill="white"/>
<path d="M62.7773 43.2899V33.1506C62.7773 28.3326 66.5167 24.4495 71.1189 24.4495H89.3841C94.0582 24.4495 97.7976 28.3326 97.7976 33.1506V43.2899" fill="white"/>
<path d="M95.9277 50.8405C90.7502 51.7034 85.3569 51.7753 83.4873 51.7753C80.6828 51.7753 70.3277 51.6315 63.9996 49.1146C63.9277 49.8337 63.9277 50.5528 63.9277 51.2719C63.9277 63.7124 71.1187 73.7798 79.8918 73.7798C88.6648 73.7798 95.8558 63.7124 95.8558 51.2719C95.9277 51.0562 95.9277 50.9843 95.9277 50.8405Z" fill="white"/>
<path d="M99.9557 108.441L102.904 103.407H115.416C113.475 98.8046 108.873 95.4967 103.479 95.4967C98.158 95.4967 93.5557 98.7327 91.5423 103.407H68.4591C66.5175 98.8046 61.9153 95.4967 56.522 95.4967C51.2007 95.4967 46.5984 98.7327 44.585 103.407H57.0973L60.0456 108.441L57.0973 113.474H44.585C46.5265 118.076 51.1288 121.384 56.522 121.384C61.8434 121.384 66.4456 118.148 68.4591 113.474H91.6142C93.5557 118.076 98.158 121.384 103.551 121.384C108.873 121.384 113.475 118.148 115.488 113.474H102.904L99.9557 108.441Z" fill="white" stroke="black" stroke-width="4" stroke-miterlimit="10" stroke-linecap="round" stroke-linejoin="round"/>
</g>
</g>
<defs>
<clipPath id="clip0_2257_186">
<rect width="160" height="160" fill="white"/>
</clipPath>
<clipPath id="clip1_2257_186">
<rect width="73.7079" height="110.885" fill="white" transform="translate(43.1465 24.4495)"/>
</clipPath>
</defs>
</svg>
