<svg width="160" height="160" viewBox="0 0 160 160" fill="none" xmlns="http://www.w3.org/2000/svg">
<g clip-path="url(#clip0_2257_244)">
<path d="M80.036 160.072C124.239 160.072 160.072 124.239 160.072 80.036C160.072 35.8333 124.239 0 80.036 0C35.8333 0 0 35.8333 0 80.036C0 124.239 35.8333 160.072 80.036 160.072Z" fill="black"/>
<g clip-path="url(#clip1_2257_244)">
<path d="M116.492 95.036C116.492 83.2477 107.005 73.6246 95.2075 73.6246C85.8808 73.6246 77.9889 79.6391 75.1191 88.0593" stroke="white" stroke-width="3" stroke-miterlimit="10" stroke-linecap="round" stroke-linejoin="round"/>
<path d="M74.0039 95.036C74.0039 106.824 83.4901 116.447 95.288 116.447C100.071 116.447 104.535 114.844 108.122 112.117L123.029 127.113C124.065 128.155 125.819 128.155 126.856 127.113L127.972 125.99C129.008 124.948 129.008 123.184 127.972 122.141L112.905 106.985C114.021 105.301 114.978 103.456 115.616 101.451" stroke="white" stroke-width="3" stroke-miterlimit="10" stroke-linecap="round" stroke-linejoin="round"/>
<path d="M116.891 78.2758H121.594V87.4177H129.007V62.2373H121.594V71.3793H114.499V65.445L96.0847 47.0008H74.96V39.5429H84.0476V32.0048H59.0966V39.5429H68.1842V47.0008H46.2623V59.5108H39.4865V50.3688H31.9932V75.5493H39.4865V66.4073H46.2623V77.7947L62.8432 94.4747H79.743L84.0476 90.866L90.5843 99.4466L99.5922 86.2951L107.723 99.4466L111.39 94.4747H117.05" stroke="white" stroke-width="3" stroke-miterlimit="10" stroke-linecap="round" stroke-linejoin="round"/>
<path d="M117.449 98.8853C119.87 98.8853 121.833 96.9106 121.833 94.4747C121.833 92.0388 119.87 90.0641 117.449 90.0641C115.027 90.0641 113.064 92.0388 113.064 94.4747C113.064 96.9106 115.027 98.8853 117.449 98.8853Z" fill="white"/>
</g>
</g>
<defs>
<clipPath id="clip0_2257_244">
<rect width="160" height="160" fill="white"/>
</clipPath>
<clipPath id="clip1_2257_244">
<rect width="101" height="100" fill="white" transform="translate(30 30)"/>
</clipPath>
</defs>
</svg>
