<svg width="160" height="160" viewBox="0 0 160 160" fill="none" xmlns="http://www.w3.org/2000/svg">
<g clip-path="url(#clip0_2257_293)">
<path d="M80 160C124.183 160 160 124.183 160 80C160 35.8172 124.183 0 80 0C35.8172 0 0 35.8172 0 80C0 124.183 35.8172 160 80 160Z" fill="black"/>
<g clip-path="url(#clip1_2257_293)">
<path d="M51.2565 95.673C63.0506 95.673 72.6116 92.1544 72.6116 87.8139C72.6116 83.4735 63.0506 79.9548 51.2565 79.9548C39.4624 79.9548 29.9014 83.4735 29.9014 87.8139C29.9014 92.1544 39.4624 95.673 51.2565 95.673Z" stroke="white" stroke-width="2" stroke-miterlimit="10"/>
<path d="M51.2567 91.9693C57.527 91.9693 62.61 90.1089 62.61 87.8139C62.61 85.519 57.527 83.6586 51.2567 83.6586C44.9864 83.6586 39.9033 85.519 39.9033 87.8139C39.9033 90.1089 44.9864 91.9693 51.2567 91.9693Z" stroke="white" stroke-width="2" stroke-miterlimit="10"/>
<path d="M72.6116 87.814V121.238C72.6116 125.574 63.0604 129.097 51.2565 129.097C39.4526 129.097 29.9014 125.574 29.9014 121.238V87.814" stroke="white" stroke-width="2" stroke-miterlimit="10"/>
<path d="M34.6768 92.7823V126.116" stroke="white" stroke-width="2" stroke-miterlimit="10"/>
<path d="M39.3623 94.318V127.832" stroke="white" stroke-width="2" stroke-miterlimit="10"/>
<path d="M44.1377 95.2213V128.735" stroke="white" stroke-width="2" stroke-miterlimit="10"/>
<path d="M48.9141 95.673V129.097" stroke="white" stroke-width="2" stroke-miterlimit="10"/>
<path d="M53.6895 95.673V129.097" stroke="white" stroke-width="2" stroke-miterlimit="10"/>
<path d="M58.375 95.2213V128.735" stroke="white" stroke-width="2" stroke-miterlimit="10"/>
<path d="M63.1504 94.318V127.832" stroke="white" stroke-width="2" stroke-miterlimit="10"/>
<path d="M67.9258 92.7823V126.116" stroke="white" stroke-width="2" stroke-miterlimit="10"/>
<path d="M50.9862 73.1797C45.5799 73.1797 40.1735 71.1021 36.0286 66.9467C27.829 58.7263 27.829 45.2665 36.0286 37.046C44.2283 28.8256 57.6541 28.8256 65.8537 37.046C74.0534 45.2665 74.0534 58.7263 65.8537 66.9467C61.799 71.1924 56.3926 73.1797 50.9862 73.1797ZM50.9862 39.6657C47.8325 39.6657 44.6788 40.8401 42.246 43.2791C37.3802 48.1572 37.3802 56.0162 42.246 60.8943C47.1117 65.7723 54.9509 65.7723 59.8166 60.8943C64.6824 56.0162 64.6824 48.1572 59.8166 43.2791C57.3838 40.8401 54.14 39.6657 50.9862 39.6657Z" stroke="white" stroke-width="2" stroke-miterlimit="10"/>
<path d="M69.5477 70.6504L58.1943 59.2683C60.0866 57.3713 61.1678 54.7516 61.1678 52.0416C61.1678 49.3316 60.0866 46.7119 58.1943 44.8149L69.5477 33.4327C74.5035 38.4011 77.2067 44.9955 77.2067 52.0416C77.2067 59.0877 74.5035 65.6821 69.5477 70.6504Z" stroke="white" stroke-width="2" stroke-miterlimit="10"/>
<path d="M50.9864 36.8654C51.9319 36.8654 52.6984 36.097 52.6984 35.1491C52.6984 34.2012 51.9319 33.4327 50.9864 33.4327C50.0409 33.4327 49.2744 34.2012 49.2744 35.1491C49.2744 36.097 50.0409 36.8654 50.9864 36.8654Z" stroke="white" stroke-width="2" stroke-miterlimit="10"/>
<path d="M39.0919 41.9242C40.0374 41.9242 40.8039 41.1557 40.8039 40.2078C40.8039 39.2599 40.0374 38.4915 39.0919 38.4915C38.1464 38.4915 37.3799 39.2599 37.3799 40.2078C37.3799 41.1557 38.1464 41.9242 39.0919 41.9242Z" stroke="white" stroke-width="2" stroke-miterlimit="10"/>
<path d="M34.2267 53.8482C35.1722 53.8482 35.9387 53.0798 35.9387 52.1319C35.9387 51.184 35.1722 50.4155 34.2267 50.4155C33.2811 50.4155 32.5146 51.184 32.5146 52.1319C32.5146 53.0798 33.2811 53.8482 34.2267 53.8482Z" stroke="white" stroke-width="2" stroke-miterlimit="10"/>
<path d="M39.2726 65.7723C40.2181 65.7723 40.9846 65.0039 40.9846 64.056C40.9846 63.108 40.2181 62.3396 39.2726 62.3396C38.327 62.3396 37.5605 63.108 37.5605 64.056C37.5605 65.0039 38.327 65.7723 39.2726 65.7723Z" stroke="white" stroke-width="2" stroke-miterlimit="10"/>
<path d="M51.1661 70.6504C52.1116 70.6504 52.8781 69.8819 52.8781 68.934C52.8781 67.9861 52.1116 67.2177 51.1661 67.2177C50.2206 67.2177 49.4541 67.9861 49.4541 68.934C49.4541 69.8819 50.2206 70.6504 51.1661 70.6504Z" stroke="white" stroke-width="2" stroke-miterlimit="10"/>
<path d="M64.3221 65.14C63.6914 65.7723 62.6101 65.7723 61.8892 65.14C61.1684 64.5076 61.2585 63.4236 61.8892 62.7009" stroke="white" stroke-width="2" stroke-miterlimit="10"/>
<path d="M61.7084 41.2917C61.0777 40.6594 61.0777 39.5753 61.7084 38.8527C62.4293 38.13 63.5105 38.13 64.1413 38.8527" stroke="white" stroke-width="2" stroke-miterlimit="10"/>
<path d="M109.015 73.6314C103.608 73.6314 98.2018 71.5537 94.057 67.3983C85.8573 59.1779 85.8573 45.7181 94.057 37.4977C102.257 29.2773 115.682 29.2773 123.882 37.4977C132.082 45.7181 132.082 59.1779 123.882 67.3983C119.827 71.5537 114.421 73.6314 109.015 73.6314ZM109.015 40.0271C105.861 40.0271 102.707 41.2014 100.274 43.6404C95.4086 48.5185 95.4086 56.3776 100.274 61.2556C105.14 66.1337 112.979 66.1337 117.845 61.2556C122.711 56.3776 122.711 48.5185 117.845 43.6404C115.322 41.2917 112.168 40.0271 109.015 40.0271Z" stroke="white" stroke-width="2" stroke-miterlimit="10"/>
<path d="M109.014 61.4362C113.941 61.4362 117.935 57.4323 117.935 52.4931C117.935 47.554 113.941 43.55 109.014 43.55C104.088 43.55 100.094 47.554 100.094 52.4931C100.094 57.4323 104.088 61.4362 109.014 61.4362Z" stroke="white" stroke-width="2" stroke-miterlimit="10"/>
<path d="M105.05 54.5709L101.806 57.8229C102.346 58.5456 102.977 59.1779 103.698 59.7199L106.942 56.4679C106.131 56.0162 105.5 55.3839 105.05 54.5709ZM112.979 50.4155L116.223 47.1635C115.682 46.4408 115.051 45.8085 114.33 45.2665L111.087 48.5185C111.898 48.9702 112.528 49.6025 112.979 50.4155ZM101.806 47.1635L105.05 50.4155C105.5 49.6025 106.131 48.9702 106.942 48.5185L103.698 45.2665C102.977 45.8085 102.346 46.4408 101.806 47.1635ZM104.509 52.4932C104.509 52.0415 104.599 51.5899 104.689 51.1382H100.184C100.094 51.5899 100.094 52.0415 100.094 52.4932C100.094 52.9449 100.184 53.3965 100.184 53.8482H104.689C104.599 53.3965 104.509 52.9449 104.509 52.4932ZM107.663 43.6404V48.2475C108.113 48.1572 108.564 48.0668 109.014 48.0668C109.465 48.0668 109.915 48.1572 110.366 48.2475V43.6404C109.915 43.5501 109.465 43.5501 109.014 43.5501C108.564 43.4598 108.113 43.5501 107.663 43.6404ZM117.845 51.1382H113.249C113.339 51.5899 113.429 52.0415 113.429 52.4932C113.429 52.9449 113.339 53.3965 113.249 53.8482H117.845C117.935 53.3965 117.935 52.9449 117.935 52.4932C117.935 52.0415 117.935 51.5899 117.845 51.1382ZM107.663 56.7389V61.346C108.113 61.4363 108.564 61.4363 109.014 61.4363C109.465 61.4363 109.915 61.346 110.366 61.346V56.7389C109.915 56.8292 109.465 56.9196 109.014 56.9196C108.564 57.0099 108.113 56.9196 107.663 56.7389ZM111.087 56.4679L114.33 59.7199C115.051 59.1779 115.682 58.5456 116.223 57.8229L112.979 54.5709C112.528 55.3839 111.898 56.0162 111.087 56.4679Z" stroke="white" stroke-miterlimit="10"/>
<path d="M88.6518 110.287L100.057 121.721L102.86 118.91L91.4553 107.476L88.6518 110.287Z" stroke="white" stroke-width="2" stroke-miterlimit="10" stroke-linecap="round" stroke-linejoin="round"/>
<path d="M87.8692 115.143L95.1963 122.489L97.9997 119.678L90.6726 112.333L87.8692 115.143Z" stroke="white" stroke-width="2" stroke-miterlimit="10" stroke-linecap="round" stroke-linejoin="round"/>
<path d="M113.333 89.6465L120.66 96.9922L123.464 94.1817L116.136 86.836L113.333 89.6465Z" stroke="white" stroke-width="2" stroke-miterlimit="10" stroke-linecap="round" stroke-linejoin="round"/>
<path d="M95.4398 111.401L99.0078 114.978L116.019 97.9236L112.451 94.3465L95.4398 111.401Z" stroke="white" stroke-width="2" stroke-miterlimit="10" stroke-linecap="round" stroke-linejoin="round"/>
<path d="M108.472 90.4147L119.877 101.848L122.68 99.0379L111.276 87.6042L108.472 90.4147Z" stroke="white" stroke-width="2" stroke-miterlimit="10" stroke-linecap="round" stroke-linejoin="round"/>
<path d="M98.832 101.364L107.032 113.469L104.779 115.817L96.4893 103.713L98.832 101.364Z" fill="black" stroke="white" stroke-width="2" stroke-miterlimit="10" stroke-linecap="round" stroke-linejoin="round"/>
<path d="M103.067 97.2086L111.267 109.223L108.924 111.572L100.725 99.467L103.067 97.2086Z" fill="black" stroke="white" stroke-width="2" stroke-miterlimit="10" stroke-linecap="round" stroke-linejoin="round"/>
<path d="M107.213 92.9629L115.502 104.977L113.16 107.326L104.96 95.2212L107.213 92.9629Z" fill="black" stroke="white" stroke-width="2" stroke-miterlimit="10" stroke-linecap="round" stroke-linejoin="round"/>
<path d="M91.7139 118.618C94.0566 120.967 94.0566 124.851 91.7139 127.29C89.3711 129.639 85.4966 129.639 83.0637 127.29C80.721 124.941 80.721 121.057 83.0637 118.618C85.4966 116.269 89.3711 116.269 91.7139 118.618ZM85.4966 124.941C86.5778 126.025 88.2899 126.025 89.3711 124.941C90.4524 123.857 90.4524 122.141 89.3711 121.057C88.2899 119.973 86.5778 119.973 85.4966 121.057C84.4153 122.141 84.4153 123.857 85.4966 124.941Z" stroke="white" stroke-width="2" stroke-miterlimit="10" stroke-linecap="round" stroke-linejoin="round"/>
<path d="M128.297 81.9422C130.64 84.2908 130.64 88.1752 128.297 90.6142C125.954 92.9629 122.08 92.9629 119.647 90.6142C117.304 88.2656 117.304 84.3812 119.647 81.9422C121.989 79.5031 125.954 79.5935 128.297 81.9422ZM122.08 88.2656C123.161 89.3496 124.873 89.3496 125.954 88.2656C127.035 87.1815 127.035 85.4652 125.954 84.3812C124.873 83.2972 123.161 83.2972 122.08 84.3812C120.998 85.4652 120.998 87.1815 122.08 88.2656Z" stroke="white" stroke-width="2" stroke-miterlimit="10" stroke-linecap="round" stroke-linejoin="round"/>
</g>
</g>
<defs>
<clipPath id="clip0_2257_293">
<rect width="160" height="160" fill="white"/>
</clipPath>
<clipPath id="clip1_2257_293">
<rect width="102" height="100" fill="white" transform="translate(29 30)"/>
</clipPath>
</defs>
</svg>
