<svg width="110" height="110" viewBox="0 0 110 110" fill="none" xmlns="http://www.w3.org/2000/svg">
<circle cx="55" cy="55" r="53.5" fill="white" stroke="#D2CCCD" stroke-width="3"/>
<path d="M38.112 78V71.28L55.392 54.96C56.7573 53.7227 57.76 52.6133 58.4 51.632C59.04 50.6507 59.4667 49.7547 59.68 48.944C59.936 48.1333 60.064 47.3867 60.064 46.704C60.064 44.912 59.4453 43.5467 58.208 42.608C57.0133 41.6267 55.2427 41.136 52.896 41.136C51.0187 41.136 49.2693 41.4987 47.648 42.224C46.0693 42.9493 44.7253 44.08 43.616 45.616L36.064 40.752C37.7707 38.192 40.16 36.1653 43.232 34.672C46.304 33.1787 49.8453 32.432 53.856 32.432C57.184 32.432 60.0853 32.9867 62.56 34.096C65.0773 35.1627 67.0187 36.6773 68.384 38.64C69.792 40.6027 70.496 42.9493 70.496 45.68C70.496 47.1307 70.304 48.5813 69.92 50.032C69.5787 51.44 68.8533 52.9333 67.744 54.512C66.6773 56.0907 65.0987 57.8613 63.008 59.824L48.672 73.328L46.688 69.552H71.968V78H38.112Z" fill="#C3002F"/>
</svg>
