<svg xmlns="http://www.w3.org/2000/svg" width="15" height="19" viewBox="0 0 15 19">
  <g id="map_" transform="translate(-513 -1684)">
    <path id="Union_1" data-name="Union 1" d="M2.325,13.1A7.627,7.627,0,0,1,0,7.6,7.55,7.55,0,0,1,7.5,0,7.55,7.55,0,0,1,15,7.6a7.626,7.626,0,0,1-2.325,5.5L7.5,19Z" transform="translate(513 1684)" fill="#c3002f"/>
    <g id="nissan-next-logo-black" transform="translate(514.583 1686.85)">
      <path id="Path_31" data-name="Path 31" d="M15.228,120.221a4.4,4.4,0,0,1,8.3,0l0,.015h1.323v-.157l-.55-.064a.536.536,0,0,1-.5-.379l-.022-.046a4.873,4.873,0,0,0-8.809,0l-.022.046a.539.539,0,0,1-.5.379l-.55.064v.159h1.323Z" transform="translate(-13.56 -116.8)" fill="#fff"/>
      <path id="Path_32" data-name="Path 32" d="M23.54,374.4l0,.015a4.385,4.385,0,0,1-4.155,2.952h0a4.379,4.379,0,0,1-4.152-2.954l0-.015H13.9v.159l.55.064a.536.536,0,0,1,.5.379l.022.046a4.884,4.884,0,0,0,4.4,2.79h0a4.881,4.881,0,0,0,4.4-2.788l.022-.046a.539.539,0,0,1,.5-.379l.55-.064V374.4Z" transform="translate(-13.56 -368.1)" fill="#fff"/>
      <g id="Group_1" data-name="Group 1" transform="translate(0 4.192)">
        <rect id="Rectangle_5" data-name="Rectangle 5" width="0.301" height="1.355" transform="translate(2.348 0)" fill="#fff"/>
        <path id="Path_33" data-name="Path 33" d="M1.685,289.555V288.2h-.3v1.008l-1-1.008H0v1.355H.3v-1.017l1.005,1.017Z" transform="translate(0 -288.2)" fill="#fff"/>
        <path id="Path_34" data-name="Path 34" d="M309.446,288.2l-.846,1.355h.364l.152-.242h.986l.152.242h.362l-.846-1.355Zm.5.856h-.677l.34-.545Z" transform="translate(-301.053 -288.2)" fill="#fff"/>
        <path id="Path_35" data-name="Path 35" d="M225.6,289.271a.473.473,0,0,1-.061,0h-1.206v.279h1.225c.01,0,.081,0,.1,0a.4.4,0,0,0,.364-.413.393.393,0,0,0-.345-.408.866.866,0,0,0-.1,0h-.8a.375.375,0,0,1-.088-.007.117.117,0,0,1-.086-.117.12.12,0,0,1,.088-.117.353.353,0,0,1,.083,0h1.157V288.2H224.76c-.049,0-.086,0-.117,0a.4.4,0,0,0,0,.79,1.242,1.242,0,0,0,.127,0h.78a.38.38,0,0,1,.056,0,.131.131,0,0,1,.12.134.144.144,0,0,1-.12.135" transform="translate(-218.815 -288.2)" fill="#fff"/>
        <path id="Path_36" data-name="Path 36" d="M133.7,289.271a.472.472,0,0,1-.061,0h-1.206v.279h1.225c.01,0,.081,0,.1,0a.4.4,0,0,0,.364-.413.393.393,0,0,0-.345-.408.866.866,0,0,0-.1,0h-.8a.375.375,0,0,1-.088-.007.117.117,0,0,1-.086-.117.12.12,0,0,1,.088-.117.353.353,0,0,1,.083,0h1.157V288.2H132.86c-.049,0-.086,0-.117,0a.4.4,0,0,0,0,.79,1.242,1.242,0,0,0,.127,0h.78a.38.38,0,0,1,.056,0,.131.131,0,0,1,.12.134.15.15,0,0,1-.12.135" transform="translate(-129.162 -288.2)" fill="#fff"/>
        <path id="Path_37" data-name="Path 37" d="M408.783,289.555V288.2h-.3v1.008l-1-1.008H407.1v1.355h.3v-1.017l1.008,1.017Z" transform="translate(-397.144 -288.2)" fill="#fff"/>
      </g>
    </g>
  </g>
</svg>
