<svg width="50" height="50" viewBox="0 0 50 50" fill="none" xmlns="http://www.w3.org/2000/svg">
                    <path d="M24.9993 45.8334C22.1174 45.8334 19.4091 45.2865 16.8743 44.1928C14.3396 43.099 12.1348 41.6147 10.2598 39.7397C8.38477 37.8647 6.90039 35.6598 5.80664 33.1251C4.71289 30.5904 4.16602 27.882 4.16602 25.0001C4.16602 22.1181 4.71289 19.4098 5.80664 16.8751C6.90039 14.3404 8.38477 12.1355 10.2598 10.2605C12.1348 8.3855 14.3396 6.90112 16.8743 5.80737C19.4091 4.71362 22.1174 4.16675 24.9993 4.16675C27.8813 4.16675 30.5896 4.71362 33.1243 5.80737C35.6591 6.90112 37.8639 8.3855 39.7389 10.2605C41.6139 12.1355 43.0983 14.3404 44.1921 16.8751C45.2858 19.4098 45.8327 22.1181 45.8327 25.0001V28.0209C45.8327 30.0695 45.1296 31.8143 43.7233 33.2553C42.3171 34.6963 40.5896 35.4167 38.541 35.4167C37.3257 35.4167 36.1799 35.1563 35.1035 34.6355C34.0271 34.1147 33.1243 33.3681 32.3952 32.3959C31.3882 33.4029 30.2511 34.1581 28.9837 34.6615C27.7164 35.165 26.3882 35.4167 24.9993 35.4167C22.1174 35.4167 19.6608 34.4011 17.6296 32.3699C15.5983 30.3386 14.5827 27.882 14.5827 25.0001C14.5827 22.1181 15.5983 19.6615 17.6296 17.6303C19.6608 15.599 22.1174 14.5834 24.9993 14.5834C27.8813 14.5834 30.3379 15.599 32.3691 17.6303C34.4004 19.6615 35.416 22.1181 35.416 25.0001V28.0209C35.416 28.9237 35.7112 29.6876 36.3014 30.3126C36.8917 30.9376 37.6382 31.2501 38.541 31.2501C39.4438 31.2501 40.1903 30.9376 40.7806 30.3126C41.3709 29.6876 41.666 28.9237 41.666 28.0209V25.0001C41.666 20.3473 40.0514 16.4063 36.8223 13.1772C33.5931 9.948 29.6521 8.33342 24.9993 8.33342C20.3466 8.33342 16.4056 9.948 13.1764 13.1772C9.94727 16.4063 8.33268 20.3473 8.33268 25.0001C8.33268 29.6529 9.94727 33.5938 13.1764 36.823C16.4056 40.0522 20.3466 41.6667 24.9993 41.6667H35.416V45.8334H24.9993ZM24.9993 31.2501C26.7355 31.2501 28.2112 30.6424 29.4264 29.4272C30.6417 28.2119 31.2493 26.7362 31.2493 25.0001C31.2493 23.264 30.6417 21.7883 29.4264 20.573C28.2112 19.3577 26.7355 18.7501 24.9993 18.7501C23.2632 18.7501 21.7875 19.3577 20.5723 20.573C19.357 21.7883 18.7493 23.264 18.7493 25.0001C18.7493 26.7362 19.357 28.2119 20.5723 29.4272C21.7875 30.6424 23.2632 31.2501 24.9993 31.2501Z" fill="#C3002F"></path>
                </svg>