<svg xmlns="http://www.w3.org/2000/svg" width="38.139" height="48" viewBox="0 0 38.139 48">
  <g id="spreadsheet_2_" data-name="spreadsheet (2)" transform="translate(-52.59)">
    <path id="Path_45" data-name="Path 45" d="M79.136,0H57.778a1.964,1.964,0,0,0-1.961,1.961v3.2H55.2A2.608,2.608,0,0,0,52.59,7.761v7.044a2.608,2.608,0,0,0,2.6,2.6h.622V46.039A1.963,1.963,0,0,0,57.778,48h30.99a1.964,1.964,0,0,0,1.961-1.961V37.957a.7.7,0,0,0-1.406,0v8.081a.556.556,0,0,1-.555.555H57.778a.556.556,0,0,1-.555-.555V13.607H60.27a.7.7,0,0,0,0-1.406H55.195a2.589,2.589,0,0,0-1.2.292V7.761a1.2,1.2,0,0,1,1.2-1.2H66.19a1.2,1.2,0,0,1,1.2,1.2V11a1.2,1.2,0,0,1-1.2,1.2H63.551a.7.7,0,0,0,0,1.406H66.19A2.608,2.608,0,0,0,68.795,11V7.761A2.608,2.608,0,0,0,66.19,5.156H57.223v-3.2a.556.556,0,0,1,.555-.555H78.525a4.065,4.065,0,0,1,4.061,4.061v.715a1.963,1.963,0,0,0,1.961,1.961h.715A4.065,4.065,0,0,1,89.323,12.2V34.676a.7.7,0,1,0,1.406,0V11.593A11.606,11.606,0,0,0,79.136,0ZM55.195,13.607h.622V16h-.622a1.2,1.2,0,1,1,0-2.4Zm30.068-6.87h-.715a.556.556,0,0,1-.555-.555V5.467A5.439,5.439,0,0,0,82.829,2.1a10.243,10.243,0,0,1,5.8,5.8,5.44,5.44,0,0,0-3.368-1.164Z" fill="#c3002f"/>
    <path id="Path_46" data-name="Path 46" d="M128.649,179.6a1.643,1.643,0,0,0-1.641,1.641v24.131a1.643,1.643,0,0,0,1.641,1.641H152.78a1.643,1.643,0,0,0,1.641-1.641V181.24a1.643,1.643,0,0,0-1.641-1.641Zm15.274,6.033h1.966v2.87h-5.72v-2.87h.473a.7.7,0,0,0,0-1.406h-.473v-3.22h5.72v3.22h-1.966a.7.7,0,0,0,0,1.406Zm-3.755,15.7v-2.87h5.72v2.87Zm5.72,1.406v2.87h-5.72v-2.87Zm-14.253-8.552v2.87h-3.22v-2.87Zm-3.22-1.406v-2.87h3.22v2.87Zm4.627,1.406h5.72v2.87h-5.72Zm7.127,0h5.72v2.87h-5.72Zm7.127,0h5.72v2.87h-5.72Zm0-1.406v-2.87h5.72v2.87Zm-1.406,0h-5.72v-2.87h5.72Zm-7.127,0h-5.72v-2.87h5.72Zm-5.72-4.276v-2.87h5.72v2.87Zm0-4.276v-3.22h5.72v3.22Zm-1.406,4.276h-3.22v-2.87h3.22Zm-3.22,9.958h3.22v2.87h-3.22Zm4.627,0h5.72v2.87h-5.72Zm14.253,0h5.72v2.87h-5.72Zm5.72-9.958h-5.72v-2.87h5.72Zm-24.6-7.262a.235.235,0,0,1,.234-.234h2.986v3.22h-3.22Zm0,24.131v-2.635h3.22v2.87h-2.986a.235.235,0,0,1-.234-.234Zm4.627-2.635h5.72v2.87h-5.72Zm19.739,2.87h-5.486v-2.87h5.72v2.635A.235.235,0,0,1,152.78,205.605Zm.234-24.366v2.986h-5.72v-3.22h5.486A.235.235,0,0,1,153.014,181.24Z" transform="translate(-67.441 -162.762)" fill="#c3002f"/>
  </g>
</svg>
