<svg xmlns="http://www.w3.org/2000/svg" width="38.813" height="48" viewBox="0 0 38.813 48">
  <g id="calculator" transform="translate(-49)">
    <path id="Path_47" data-name="Path 47" d="M83.594,0H53.219A4.224,4.224,0,0,0,49,4.219V43.781A4.224,4.224,0,0,0,53.219,48H83.594a4.224,4.224,0,0,0,4.219-4.219V4.219A4.224,4.224,0,0,0,83.594,0ZM85,43.781a1.408,1.408,0,0,1-1.406,1.406H53.219a1.408,1.408,0,0,1-1.406-1.406V4.219a1.408,1.408,0,0,1,1.406-1.406H83.594A1.408,1.408,0,0,1,85,4.219Z" fill="#c3002f"/>
    <path id="Path_48" data-name="Path 48" d="M138.406,65h-24A1.406,1.406,0,0,0,113,66.406v6a1.406,1.406,0,0,0,1.406,1.406h24a1.406,1.406,0,0,0,1.406-1.406v-6A1.406,1.406,0,0,0,138.406,65ZM137,71H115.813V67.813H137Z" transform="translate(-58 -58.906)" fill="#c3002f"/>
    <path id="Path_49" data-name="Path 49" d="M115.906,193h-1.5a1.406,1.406,0,0,0,0,2.813h1.5a1.406,1.406,0,0,0,0-2.812Z" transform="translate(-58 -174.906)" fill="#c3002f"/>
    <path id="Path_50" data-name="Path 50" d="M195.906,193h-1.5a1.406,1.406,0,0,0,0,2.813h1.5a1.406,1.406,0,0,0,0-2.812Z" transform="translate(-130.5 -174.906)" fill="#c3002f"/>
    <path id="Path_51" data-name="Path 51" d="M275.906,193h-1.5a1.406,1.406,0,0,0,0,2.813h1.5a1.406,1.406,0,0,0,0-2.812Z" transform="translate(-203 -174.906)" fill="#c3002f"/>
    <path id="Path_52" data-name="Path 52" d="M115.906,257h-1.5a1.406,1.406,0,0,0,0,2.813h1.5a1.406,1.406,0,0,0,0-2.812Z" transform="translate(-58 -232.906)" fill="#c3002f"/>
    <path id="Path_53" data-name="Path 53" d="M195.906,257h-1.5a1.406,1.406,0,0,0,0,2.813h1.5a1.406,1.406,0,0,0,0-2.812Z" transform="translate(-130.5 -232.906)" fill="#c3002f"/>
    <path id="Path_54" data-name="Path 54" d="M275.906,257h-1.5a1.406,1.406,0,0,0,0,2.813h1.5a1.406,1.406,0,0,0,0-2.812Z" transform="translate(-203 -232.906)" fill="#c3002f"/>
    <path id="Path_55" data-name="Path 55" d="M115.906,321h-1.5a1.406,1.406,0,0,0,0,2.813h1.5a1.406,1.406,0,0,0,0-2.812Z" transform="translate(-58 -290.906)" fill="#c3002f"/>
    <path id="Path_56" data-name="Path 56" d="M195.906,321h-1.5a1.406,1.406,0,0,0,0,2.813h1.5a1.406,1.406,0,0,0,0-2.812Z" transform="translate(-130.5 -290.906)" fill="#c3002f"/>
    <path id="Path_57" data-name="Path 57" d="M275.906,321h-1.5a1.406,1.406,0,0,0,0,2.813h1.5a1.406,1.406,0,0,0,0-2.812Z" transform="translate(-203 -290.906)" fill="#c3002f"/>
    <path id="Path_58" data-name="Path 58" d="M115.906,385h-1.5a1.406,1.406,0,0,0,0,2.813h1.5a1.406,1.406,0,0,0,0-2.812Z" transform="translate(-58 -348.906)" fill="#c3002f"/>
    <path id="Path_59" data-name="Path 59" d="M195.906,385h-1.5a1.406,1.406,0,0,0,0,2.813h1.5a1.406,1.406,0,0,0,0-2.812Z" transform="translate(-130.5 -348.906)" fill="#c3002f"/>
    <path id="Path_60" data-name="Path 60" d="M275.906,385h-1.5a1.406,1.406,0,0,0,0,2.813h1.5a1.406,1.406,0,0,0,0-2.812Z" transform="translate(-203 -348.906)" fill="#c3002f"/>
    <path id="Path_61" data-name="Path 61" d="M370.406,321A1.406,1.406,0,0,0,369,322.406v6a1.406,1.406,0,0,0,2.813,0v-6A1.406,1.406,0,0,0,370.406,321Z" transform="translate(-290 -290.906)" fill="#c3002f"/>
    <path id="Path_62" data-name="Path 62" d="M370.406,193A1.406,1.406,0,0,0,369,194.406v6a1.406,1.406,0,0,0,2.813,0v-6A1.406,1.406,0,0,0,370.406,193Z" transform="translate(-290 -174.906)" fill="#c3002f"/>
  </g>
</svg>
