<svg width="50" height="50" viewBox="0 0 50 50" fill="none" xmlns="http://www.w3.org/2000/svg">
                    <g clip-path="url(#clip0_1915_273)">
                        <path d="M6.18359 20.5391L6.83593 22.3359H43.4438L44.3263 21.2422L38.4553 11.3984L35.5773 9.95312L25.5236 8.85938L13.4361 10.1484L6.18359 20.5391Z" fill="#C3002F"></path>
                        <path d="M4.83984 38.7813C5.56039 38.7813 6.14452 34.8637 6.14452 30.0313C6.14452 25.1988 5.56039 21.2812 4.83984 21.2812C4.11928 21.2812 3.53516 25.1988 3.53516 30.0313C3.53516 34.8637 4.11928 38.7813 4.83984 38.7813Z" fill="#C3002F"></path>
                        <path d="M5.87533 23.1172C5.72184 23.1172 5.56835 23.0781 5.41485 23C5.41485 23 1.50081 20.8516 1.04033 20.6172C0.119383 20.1094 -0.379466 18.4688 0.349621 17.0625C0.618231 16.5547 1.04033 16.1641 1.61593 16.0078C2.46013 15.7734 3.53458 15.9688 4.57065 16.5547L5.45323 17.0625C5.64509 17.1797 5.79858 17.3359 5.87533 17.5703L6.14394 18.2344C7.98584 14.0547 10.7103 11.3984 12.015 10.2656C14.4709 8.19531 23.6036 8 24.6397 8H25.4456C26.4816 8 35.6528 8.19531 38.0703 10.2656C39.3749 11.3594 42.0994 14.0156 43.903 18.1562L44.1716 17.4922C44.2483 17.2969 44.4018 17.1016 44.5937 16.9844L45.4763 16.4766C46.5507 15.8906 47.6251 15.6953 48.431 15.9297C49.0066 16.0859 49.4287 16.4766 49.6973 16.9844C50.4264 18.3906 49.9275 20.0312 49.0066 20.5391C48.5461 20.7734 44.632 22.9219 44.632 22.9219C44.3634 23.0781 44.0564 23.0781 43.7878 22.9609C43.5192 22.8438 43.3274 22.5703 43.2506 22.2969C41.9459 16.5937 38.3389 13 36.8423 11.7109C35.3842 10.5391 29.0526 9.99219 25.4072 9.95312H24.6397C20.9943 9.99219 14.7011 10.5391 13.2429 11.7891C11.7464 13.0781 8.13934 16.6328 6.83465 22.375C6.75791 22.6875 6.56604 22.9219 6.29743 23.0391C6.14394 23.0781 6.02882 23.1172 5.87533 23.1172Z" fill="#C3002F"></path>
                        <path d="M42.5595 43H39.1826C39.1443 43 39.1059 43 39.1059 43C38.4152 42.9219 37.0337 42.4141 36.8035 40.9297C36.7651 40.6953 36.6884 40.2266 36.7268 39.6797H13.396C13.396 40.1875 13.3576 40.6953 13.3192 40.9297C13.0506 42.4141 11.7076 42.9609 11.0169 43C10.9785 43 10.9401 43 10.9401 43H7.60166C5.33766 43 4.49345 41.4375 4.45508 40.3437V27.2969C4.45508 27.0234 4.5702 26.789 4.72369 26.5937L5.06905 26.2422C5.33766 25.9687 5.72139 25.8906 6.06674 26.0078C7.8319 26.5937 10.518 27.5312 10.7866 27.6094C10.8634 27.6094 10.9017 27.6484 10.9785 27.6875C11.0552 27.7266 11.132 27.7265 11.1704 27.7656C11.2087 27.7265 11.2471 27.6875 11.3622 27.5312C11.5157 27.3359 11.2471 27.0234 11.132 26.9062L8.13888 24.875L5.79813 23.5078C5.49115 23.3125 5.29928 22.9609 5.29928 22.5703C5.33766 22.1797 5.56789 21.8672 5.91325 21.75L10.3261 20.0312C10.3645 20.0312 10.4029 19.9922 10.4413 19.9922C14.3169 19.0547 24.2172 19.0937 24.6393 19.0937H25.4067C25.8288 19.0937 35.7291 19.0937 39.6047 19.9922C39.6431 19.9922 39.6815 20.0312 39.7199 20.0312L44.1327 21.75C44.4781 21.8672 44.7083 22.2187 44.7467 22.5703C44.7851 22.9609 44.5932 23.3125 44.2479 23.5078L41.9071 24.875L38.914 26.9062C38.8373 27.0234 38.5687 27.2969 38.7222 27.5312C38.7989 27.6875 38.8756 27.7265 38.914 27.7656C38.9524 27.7656 39.0675 27.7266 39.1059 27.6875C39.1826 27.6484 39.221 27.6484 39.2977 27.6094C39.6047 27.5312 42.2908 26.5937 44.0176 26.0078C44.363 25.8906 44.7467 25.9687 45.0153 26.2422L45.3607 26.5937C45.5525 26.789 45.6293 27.0234 45.6293 27.2969V40.3047C45.6677 41.3984 44.7851 43 42.5595 43Z" fill="#C3002F"></path>
                        <path d="M45.2461 38.7813C45.9666 38.7813 46.5508 34.8637 46.5508 30.0313C46.5508 25.1988 45.9666 21.2812 45.2461 21.2812C44.5255 21.2812 43.9414 25.1988 43.9414 30.0313C43.9414 34.8637 44.5255 38.7813 45.2461 38.7813Z" fill="#C3002F"></path>
                        <path d="M38.9153 28.7812C38.685 28.7812 38.4548 28.6641 38.3397 28.4688L37.3803 26.9844C37.2652 26.7891 37.2269 26.5937 37.3036 26.3984C37.3803 26.2031 37.5338 26.0469 37.7257 25.9687L44.1724 23.3516C44.2491 23.3125 44.3259 23.3125 44.441 23.3125C44.5561 23.3125 44.6712 23.3516 44.7863 23.3906L44.8247 23.4297C45.0549 23.5469 45.1701 23.7812 45.1701 24.0156L45.2852 27.0234C45.2852 27.1797 45.2468 27.2969 45.1701 27.4531L45.0549 27.6484C44.9398 27.8047 44.7863 27.9219 44.5561 27.9609L39.0304 28.8203C38.9536 28.7422 38.9536 28.7812 38.9153 28.7812Z" fill="#C3002F"></path>
                        <path d="M44.4022 23.4297C44.479 23.4297 44.5557 23.4688 44.6325 23.5078L44.6709 23.5469C44.8243 23.625 44.9395 23.7813 44.9395 23.9766L45.0546 26.9844C45.0546 27.1016 45.0162 27.1797 44.9778 27.2969L44.8627 27.4922C44.786 27.6094 44.6709 27.6875 44.5174 27.7266L38.9917 28.5859C38.9533 28.5859 38.9533 28.5859 38.9149 28.5859C38.7614 28.5859 38.5696 28.5078 38.4928 28.3516L37.5335 26.8672C37.3416 26.5938 37.4567 26.2422 37.7637 26.0859L44.2104 23.4687C44.2871 23.4687 44.3639 23.4297 44.4022 23.4297ZM44.4022 23.0391C44.2871 23.0391 44.172 23.0781 44.0569 23.1172L37.6102 25.7344C37.3416 25.8516 37.1881 26.0469 37.073 26.3203C36.9579 26.5938 37.0346 26.8672 37.1881 27.1016L38.1475 28.5859C38.3009 28.8594 38.6079 29.0156 38.9149 29.0156C38.9533 29.0156 38.9917 29.0156 39.0684 29.0156L44.5941 28.1562C44.8627 28.1172 45.0546 27.9609 45.2081 27.7656L45.3232 27.5703C45.4383 27.4141 45.4767 27.2188 45.4767 27.0234L45.3616 24.0156C45.3616 23.7031 45.1697 23.3906 44.9011 23.2734L44.8627 23.2344C44.7092 23.0781 44.5557 23.0391 44.4022 23.0391Z" fill="#C3002F"></path>
                        <path d="M11.2091 28.7813C11.1707 28.7813 11.1323 28.7813 11.094 28.7813L5.52987 27.9219C5.338 27.8828 5.14614 27.7656 5.03102 27.6094L4.9159 27.4141C4.83915 27.2969 4.80078 27.1406 4.80078 26.9844L4.9159 23.9766C4.9159 23.7422 5.06939 23.5078 5.26126 23.3906L5.29963 23.3516C5.41475 23.2734 5.52987 23.2734 5.64499 23.2734C5.72173 23.2734 5.83685 23.2734 5.9136 23.3125L12.3603 25.9297C12.5521 26.0078 12.7056 26.1641 12.7824 26.3594C12.8591 26.5547 12.8207 26.7891 12.7056 26.9453L11.7463 28.4297C11.6695 28.625 11.4393 28.7813 11.2091 28.7813Z" fill="#C3002F"></path>
                        <path d="M5.68255 23.4297C5.7593 23.4297 5.79767 23.4297 5.87442 23.4687L12.3211 26.0859C12.6281 26.2031 12.7432 26.5938 12.5513 26.8672L11.6304 28.3125C11.5536 28.4688 11.3618 28.5469 11.2083 28.5469C11.1699 28.5469 11.1699 28.5469 11.1315 28.5469L5.60581 27.6875C5.45232 27.6484 5.3372 27.5703 5.26045 27.4531L5.14533 27.2578C5.10696 27.1797 5.06859 27.0625 5.06859 26.9453L5.18371 23.9375C5.18371 23.7422 5.29883 23.5859 5.45232 23.5078L5.49069 23.4687C5.52906 23.4687 5.60581 23.4297 5.68255 23.4297ZM5.68255 23.0391C5.52906 23.0391 5.37557 23.0781 5.26045 23.1562L5.22208 23.1953C4.95347 23.3516 4.7616 23.625 4.7616 23.9375L4.64648 26.9453C4.64648 27.1406 4.68486 27.2969 4.79998 27.4922L4.9151 27.6875C5.06859 27.9219 5.26045 28.0391 5.52906 28.0781L11.0548 28.9375C11.0931 28.9375 11.1315 28.9375 11.2083 28.9375C11.5152 28.9375 11.7839 28.7813 11.9757 28.5078L12.935 27.0234C13.0885 26.7891 13.1269 26.5156 13.0502 26.2422C12.9734 25.9688 12.7816 25.7734 12.5129 25.6563L6.06628 23.0391C5.91279 23.0781 5.79767 23.0391 5.68255 23.0391Z" fill="#C3002F"></path>
                        <path d="M36.1841 27.8507L34.534 26.9522V22.9678L36.1841 22.1085C36.4143 21.9913 36.4911 21.7178 36.4143 21.4835L35.455 19.1007C35.3399 18.8663 35.1096 18.7491 34.841 18.8272L33.0759 19.3741L30.2363 16.4444L30.8119 14.6475C30.8886 14.4132 30.7735 14.1397 30.5432 14.0225L28.2025 13.046C27.9723 12.9288 27.7036 13.046 27.5885 13.2803L26.7059 14.96H22.7919L21.9477 13.2803C21.8326 13.046 21.564 12.9678 21.3337 13.046L18.993 14.0225C18.7627 14.1397 18.6476 14.3741 18.7244 14.6475L19.2616 16.4444L16.422 19.335L14.6185 18.7882C14.3882 18.71 14.1196 18.8272 14.0045 19.0616L13.0452 21.4444C12.93 21.6788 13.0452 21.9522 13.2754 22.0694L14.9254 22.9678V26.9522L13.2754 27.8116C13.0452 27.9288 12.9684 28.2022 13.0452 28.4366L14.0045 30.8194C14.0812 31.0147 14.2731 31.1319 14.465 31.1319C14.5033 31.1319 14.5801 31.1319 14.6185 31.0928L16.3836 30.546L19.2232 33.4366L18.6476 35.2335C18.5709 35.4678 18.686 35.7413 18.9162 35.8585L21.257 36.835C21.3337 36.8741 21.3721 36.8741 21.4488 36.8741C21.6407 36.8741 21.7942 36.7569 21.8709 36.6007L22.7535 34.921H26.6676L27.5118 36.6007C27.5885 36.7569 27.7804 36.8741 27.9339 36.8741C28.0106 36.8741 28.049 36.8741 28.1257 36.835L30.4665 35.8585C30.6967 35.7413 30.8119 35.5069 30.7351 35.2335L30.1979 33.4366L33.0375 30.546L34.8026 31.1319C34.841 31.1319 34.9178 31.171 34.9561 31.171C35.148 31.171 35.3399 31.0538 35.4166 30.8585L36.3759 28.4757C36.5294 28.2413 36.4143 27.9678 36.1841 27.8507ZM24.7489 31.21C21.3721 31.21 18.6092 28.3975 18.6092 24.96C18.6092 21.5225 21.3721 18.71 24.7489 18.71C28.1257 18.71 30.8886 21.5225 30.8886 24.96C30.8502 28.3975 28.1257 31.21 24.7489 31.21Z" fill="white"></path>
                    </g>
                    <defs>
                        <clipPath id="clip0_1915_273">
                            <rect width="50" height="50" fill="white"></rect>
                        </clipPath>
                    </defs>
                </svg>