<svg xmlns="http://www.w3.org/2000/svg" width="16" height="16" viewBox="0 0 16 16">
  <g id="cancel" transform="translate(0 -0.016)">
    <g id="Group_32" data-name="Group 32" transform="translate(0 0.016)">
      <path id="Path_140" data-name="Path 140" d="M9.762,8.016l5.982-5.983a.877.877,0,0,0,0-1.238L15.22.271a.877.877,0,0,0-1.238,0L8,6.254,2.018.271A.877.877,0,0,0,.78.271L.256.8a.876.876,0,0,0,0,1.238L6.238,8.016.256,14a.878.878,0,0,0,0,1.238l.524.524a.877.877,0,0,0,1.237,0L8,9.778l5.982,5.983a.868.868,0,0,0,.619.255h0a.868.868,0,0,0,.619-.255l.524-.524a.878.878,0,0,0,0-1.238Z" transform="translate(0 -0.016)"/>
    </g>
  </g>
</svg>
