<svg id="Group_1" data-name="Group 1" xmlns="http://www.w3.org/2000/svg" width="137.444" height="16" viewBox="0 0 137.444 16">
  <rect id="Rectangle_5" data-name="Rectangle 5" width="3.552" height="16" transform="translate(27.726 0)"/>
  <path id="Path_33" data-name="Path 33" d="M19.9,304.2v-16H16.347v11.9L4.563,288.2H0v16H3.552V292.186L15.422,304.2Z" transform="translate(0 -288.2)"/>
  <path id="Path_34" data-name="Path 34" d="M318.593,288.2l-9.993,16h4.3l1.791-2.859h11.639l1.791,2.859H332.4l-9.993-16Zm5.892,10.108h-8l4.014-6.44Z" transform="translate(-219.474 -288.2)"/>
  <path id="Path_35" data-name="Path 35" d="M239.665,300.85a5.573,5.573,0,0,1-.722.029H224.7v3.292h14.469c.116,0,.953,0,1.155-.029a4.707,4.707,0,0,0,4.3-4.881,4.64,4.64,0,0,0-4.072-4.823,10.216,10.216,0,0,0-1.155-.058h-9.444a4.451,4.451,0,0,1-1.04-.087,1.379,1.379,0,0,1-1.011-1.386,1.417,1.417,0,0,1,1.04-1.386,4.14,4.14,0,0,1,.982-.058h13.661V288.2H229.73c-.578,0-1.011.029-1.386.058a4.717,4.717,0,0,0-.058,9.329,14.672,14.672,0,0,0,1.5.058H239a4.475,4.475,0,0,1,.664.029,1.544,1.544,0,0,1,1.415,1.588,1.706,1.706,0,0,1-1.415,1.588" transform="translate(-159.52 -288.2)"/>
  <path id="Path_36" data-name="Path 36" d="M147.765,300.85a5.573,5.573,0,0,1-.722.029H132.8v3.292h14.469c.116,0,.953,0,1.155-.029a4.707,4.707,0,0,0,4.3-4.881,4.64,4.64,0,0,0-4.072-4.823,10.216,10.216,0,0,0-1.155-.058h-9.444a4.45,4.45,0,0,1-1.04-.087,1.378,1.378,0,0,1-1.011-1.386,1.417,1.417,0,0,1,1.04-1.386,4.139,4.139,0,0,1,.982-.058h13.661V288.2H137.83c-.578,0-1.011.029-1.386.058a4.717,4.717,0,0,0-.058,9.329,14.672,14.672,0,0,0,1.5.058H147.1a4.475,4.475,0,0,1,.664.029,1.544,1.544,0,0,1,1.415,1.588,1.768,1.768,0,0,1-1.415,1.588" transform="translate(-94.162 -288.2)"/>
  <path id="Path_37" data-name="Path 37" d="M426.97,304.2v-16h-3.523v11.9l-11.812-11.9H407.1v16h3.523V292.186l11.9,12.015Z" transform="translate(-289.526 -288.2)"/>
</svg>
