<svg xmlns="http://www.w3.org/2000/svg" width="22" height="28" viewBox="0 0 22 28">
  <g id="Group_245" data-name="Group 245" transform="translate(-1333 -967)">
    <ellipse id="Ellipse_6" data-name="Ellipse 6" cx="11" cy="11.2" rx="11" ry="11.2" transform="translate(1333 967)" fill="#fff"/>
    <path id="Polygon_1" data-name="Polygon 1" d="M8.8,0l8.8,10.08H0Z" transform="translate(1352.8 995) rotate(180)" fill="#fff"/>
    <path id="Path_31" data-name="Path 31" d="M15.813,121.728a6.332,6.332,0,0,1,11.963,0l.007.021h1.906v-.225l-.793-.092a.771.771,0,0,1-.726-.546l-.032-.067a7.019,7.019,0,0,0-12.688,0l-.032.067a.776.776,0,0,1-.726.546l-.793.092v.229h1.906Z" transform="translate(1321.87 854.305)" fill="#c3002f"/>
    <path id="Path_32" data-name="Path 32" d="M27.786,374.4l-.007.021a6.316,6.316,0,0,1-5.985,4.252h0a6.307,6.307,0,0,1-5.981-4.255l-.007-.021H13.9v.229l.793.092a.771.771,0,0,1,.726.546l.032.067a7.034,7.034,0,0,0,6.344,4.019h0a7.031,7.031,0,0,0,6.344-4.016l.032-.067a.776.776,0,0,1,.726-.546l.793-.092V374.4Z" transform="translate(1321.87 605.779)" fill="#c3002f"/>
    <g id="Group_1" data-name="Group 1" transform="translate(1335.281 977.143)">
      <rect id="Rectangle_5" data-name="Rectangle 5" width="0.433" height="1.951" transform="translate(3.382 0)" fill="#c3002f"/>
      <path id="Path_33" data-name="Path 33" d="M2.427,290.152V288.2H1.994v1.451L.557,288.2H0v1.952H.433v-1.465l1.448,1.465Z" transform="translate(0 -288.2)" fill="#c3002f"/>
      <path id="Path_34" data-name="Path 34" d="M309.819,288.2l-1.219,1.952h.525l.218-.349h1.42l.218.349h.521l-1.219-1.952Zm.719,1.233h-.976l.49-.785Z" transform="translate(-297.729 -288.2)" fill="#c3002f"/>
      <path id="Path_35" data-name="Path 35" d="M226.174,289.743a.687.687,0,0,1-.088,0h-1.737v.4h1.765c.014,0,.116,0,.141,0a.574.574,0,0,0,.525-.6.566.566,0,0,0-.5-.588,1.239,1.239,0,0,0-.141-.007H224.99a.542.542,0,0,1-.127-.011.168.168,0,0,1-.123-.169.173.173,0,0,1,.127-.169.5.5,0,0,1,.12-.007h1.666v-.4h-1.691c-.07,0-.123,0-.169.007a.575.575,0,0,0-.007,1.138,1.792,1.792,0,0,0,.183.007h1.124a.548.548,0,0,1,.081,0,.188.188,0,0,1,.173.194.208.208,0,0,1-.173.194" transform="translate(-216.399 -288.2)" fill="#c3002f"/>
      <path id="Path_36" data-name="Path 36" d="M134.274,289.743a.688.688,0,0,1-.088,0h-1.737v.4h1.765c.014,0,.116,0,.141,0a.574.574,0,0,0,.525-.6.566.566,0,0,0-.5-.588,1.239,1.239,0,0,0-.141-.007H133.09a.542.542,0,0,1-.127-.011.168.168,0,0,1-.123-.169.173.173,0,0,1,.127-.169.5.5,0,0,1,.12-.007h1.666v-.4h-1.691c-.07,0-.123,0-.169.007a.575.575,0,0,0-.007,1.138,1.793,1.793,0,0,0,.183.007h1.124a.548.548,0,0,1,.081,0,.188.188,0,0,1,.173.194.216.216,0,0,1-.173.194" transform="translate(-127.736 -288.2)" fill="#c3002f"/>
      <path id="Path_37" data-name="Path 37" d="M409.524,290.152V288.2h-.43v1.451l-1.441-1.451H407.1v1.952h.43v-1.465l1.451,1.465Z" transform="translate(-392.76 -288.2)" fill="#c3002f"/>
    </g>
  </g>
</svg>
