<svg xmlns="http://www.w3.org/2000/svg" width="22.641" height="28" viewBox="0 0 22.641 28">
  <g id="Group_246" data-name="Group 246" transform="translate(-1331 -1015)">
    <path id="Path_47" data-name="Path 47" d="M69.18,0H51.461A2.464,2.464,0,0,0,49,2.461V25.539A2.464,2.464,0,0,0,51.461,28H69.18a2.464,2.464,0,0,0,2.461-2.461V2.461A2.464,2.464,0,0,0,69.18,0ZM70,25.539a.821.821,0,0,1-.82.82H51.461a.821.821,0,0,1-.82-.82V2.461a.821.821,0,0,1,.82-.82H69.18a.821.821,0,0,1,.82.82Z" transform="translate(1282 1015)" fill="#fff"/>
    <path id="Path_48" data-name="Path 48" d="M127.82,65h-14a.82.82,0,0,0-.82.82v3.5a.82.82,0,0,0,.82.82h14a.82.82,0,0,0,.82-.82v-3.5A.82.82,0,0,0,127.82,65ZM127,68.5H114.641V66.641H127Z" transform="translate(1221.5 953.555)" fill="#fff"/>
    <path id="Path_49" data-name="Path 49" d="M114.7,193h-.875a.82.82,0,0,0,0,1.641h.875a.82.82,0,0,0,0-1.641Z" transform="translate(1221.5 832.555)" fill="#fff"/>
    <path id="Path_50" data-name="Path 50" d="M194.7,193h-.875a.82.82,0,0,0,0,1.641h.875a.82.82,0,0,0,0-1.641Z" transform="translate(1145.875 832.555)" fill="#fff"/>
    <path id="Path_51" data-name="Path 51" d="M274.7,193h-.875a.82.82,0,0,0,0,1.641h.875a.82.82,0,0,0,0-1.641Z" transform="translate(1070.25 832.555)" fill="#fff"/>
    <path id="Path_52" data-name="Path 52" d="M114.7,257h-.875a.82.82,0,0,0,0,1.641h.875a.82.82,0,0,0,0-1.641Z" transform="translate(1221.5 772.055)" fill="#fff"/>
    <path id="Path_53" data-name="Path 53" d="M194.7,257h-.875a.82.82,0,0,0,0,1.641h.875a.82.82,0,0,0,0-1.641Z" transform="translate(1145.875 772.055)" fill="#fff"/>
    <path id="Path_54" data-name="Path 54" d="M274.7,257h-.875a.82.82,0,0,0,0,1.641h.875a.82.82,0,0,0,0-1.641Z" transform="translate(1070.25 772.055)" fill="#fff"/>
    <path id="Path_55" data-name="Path 55" d="M114.7,321h-.875a.82.82,0,0,0,0,1.641h.875a.82.82,0,0,0,0-1.641Z" transform="translate(1221.5 711.555)" fill="#fff"/>
    <path id="Path_56" data-name="Path 56" d="M194.7,321h-.875a.82.82,0,0,0,0,1.641h.875a.82.82,0,0,0,0-1.641Z" transform="translate(1145.875 711.555)" fill="#fff"/>
    <path id="Path_57" data-name="Path 57" d="M274.7,321h-.875a.82.82,0,0,0,0,1.641h.875a.82.82,0,0,0,0-1.641Z" transform="translate(1070.25 711.555)" fill="#fff"/>
    <path id="Path_58" data-name="Path 58" d="M114.7,385h-.875a.82.82,0,0,0,0,1.641h.875a.82.82,0,0,0,0-1.641Z" transform="translate(1221.5 651.055)" fill="#fff"/>
    <path id="Path_59" data-name="Path 59" d="M194.7,385h-.875a.82.82,0,0,0,0,1.641h.875a.82.82,0,0,0,0-1.641Z" transform="translate(1145.875 651.055)" fill="#fff"/>
    <path id="Path_60" data-name="Path 60" d="M274.7,385h-.875a.82.82,0,0,0,0,1.641h.875a.82.82,0,0,0,0-1.641Z" transform="translate(1070.25 651.055)" fill="#fff"/>
    <path id="Path_61" data-name="Path 61" d="M369.82,321a.82.82,0,0,0-.82.82v3.5a.82.82,0,0,0,1.641,0v-3.5A.82.82,0,0,0,369.82,321Z" transform="translate(979.5 711.555)" fill="#fff"/>
    <path id="Path_62" data-name="Path 62" d="M369.82,193a.82.82,0,0,0-.82.82v3.5a.82.82,0,0,0,1.641,0v-3.5A.82.82,0,0,0,369.82,193Z" transform="translate(979.5 832.555)" fill="#fff"/>
  </g>
</svg>
