<svg xmlns="http://www.w3.org/2000/svg" width="22.248" height="28" viewBox="0 0 22.248 28">
  <g id="Group_244" data-name="Group 244" transform="translate(-1331 -918)">
    <path id="Path_45" data-name="Path 45" d="M68.075,0H55.616a1.145,1.145,0,0,0-1.144,1.144V3.008H54.11a1.521,1.521,0,0,0-1.52,1.52V8.636a1.521,1.521,0,0,0,1.519,1.519h.363v16.7A1.145,1.145,0,0,0,55.616,28H73.694a1.145,1.145,0,0,0,1.144-1.144V22.142a.41.41,0,0,0-.82,0v4.714a.324.324,0,0,1-.324.324H55.616a.324.324,0,0,1-.324-.324V7.937H57.07a.41.41,0,0,0,0-.82H54.11a1.51,1.51,0,0,0-.7.171V4.527a.7.7,0,0,1,.7-.7h6.413a.7.7,0,0,1,.7.7v1.89a.7.7,0,0,1-.7.7H58.984a.41.41,0,0,0,0,.82h1.539a1.521,1.521,0,0,0,1.52-1.52V4.527a1.521,1.521,0,0,0-1.52-1.52H55.293V1.144A.324.324,0,0,1,55.616.82h12.1a2.371,2.371,0,0,1,2.369,2.369v.417A1.145,1.145,0,0,0,71.232,4.75h.417a2.371,2.371,0,0,1,2.369,2.369V20.228a.41.41,0,0,0,.82,0V6.763A6.77,6.77,0,0,0,68.075,0ZM54.11,7.937h.363v1.4H54.11a.7.7,0,1,1,0-1.4ZM71.649,3.93h-.417a.324.324,0,0,1-.324-.324V3.189a3.173,3.173,0,0,0-.679-1.965,5.975,5.975,0,0,1,3.384,3.384,3.173,3.173,0,0,0-1.965-.679Z" transform="translate(1278.41 918)" fill="#fff"/>
    <path id="Path_46" data-name="Path 46" d="M127.965,179.6a.958.958,0,0,0-.957.957v14.077a.958.958,0,0,0,.957.957h14.077a.958.958,0,0,0,.957-.957V180.556a.958.958,0,0,0-.957-.957Zm8.91,3.519h1.147v1.674h-3.337v-1.674h.276a.41.41,0,0,0,0-.82h-.276v-1.879h3.337V182.3h-1.147a.41.41,0,0,0,0,.82Zm-2.19,9.157V190.6h3.337v1.674Zm3.337.82v1.674h-3.337V193.1Zm-8.314-4.989v1.674h-1.878v-1.674Zm-1.878-.82v-1.674h1.878v1.674Zm2.7.82h3.337v1.674h-3.337Zm4.157,0h3.337v1.674h-3.337Zm4.157,0h3.337v1.674h-3.337Zm0-.82v-1.674h3.337v1.674Zm-.82,0h-3.337v-1.674h3.337Zm-4.157,0h-3.337v-1.674h3.337Zm-3.337-2.494v-1.674h3.337v1.674Zm0-2.494v-1.879h3.337V182.3Zm-.82,2.494h-1.878v-1.674h1.878Zm-1.878,5.809h1.878v1.674h-1.878Zm2.7,0h3.337v1.674h-3.337Zm8.314,0h3.337v1.674h-3.337Zm3.337-5.809h-3.337v-1.674h3.337Zm-14.35-4.236a.137.137,0,0,1,.137-.137h1.742V182.3h-1.878Zm0,14.077V193.1h1.878v1.674h-1.742A.137.137,0,0,1,127.828,194.633Zm2.7-1.537h3.337v1.674h-3.337Zm11.515,1.674h-3.2V193.1h3.337v1.537A.137.137,0,0,1,142.042,194.769Zm.137-14.213V182.3h-3.337v-1.879h3.2A.137.137,0,0,1,142.178,180.556Z" transform="translate(1208.062 748.223)" fill="#fff"/>
  </g>
</svg>
