<svg xmlns="http://www.w3.org/2000/svg" width="108" height="108.002" viewBox="0 0 108 108.002">
  <g id="phone-call" transform="translate(-0.006)">
    <g id="Group_204" data-name="Group 204" transform="translate(25.114)">
      <g id="Group_203" data-name="Group 203">
        <path id="Path_236" data-name="Path 236" d="M121.147,0a2.11,2.11,0,0,0,0,4.219c11.917,0,21.612,9.947,21.612,22.173a2.11,2.11,0,0,0,4.219,0C146.978,11.84,135.39,0,121.147,0Z" transform="translate(-119.037)" fill="#fff"/>
      </g>
    </g>
    <g id="Group_206" data-name="Group 206" transform="translate(25.107 10.009)">
      <g id="Group_205" data-name="Group 205">
        <path id="Path_237" data-name="Path 237" d="M121.114,47.447a2.11,2.11,0,0,0,0,4.219A12.016,12.016,0,0,1,132.948,63.83a2.11,2.11,0,1,0,4.219,0A16.239,16.239,0,0,0,121.114,47.447Z" transform="translate(-119.004 -47.447)" fill="#fff"/>
      </g>
    </g>
    <g id="Group_208" data-name="Group 208" transform="translate(25.148 19.228)">
      <g id="Group_207" data-name="Group 207">
        <path id="Path_238" data-name="Path 238" d="M121.308,91.155a2.11,2.11,0,1,0,0,4.219,2.827,2.827,0,0,1,2.764,2.88,2.11,2.11,0,0,0,4.219,0A7.05,7.05,0,0,0,121.308,91.155Z" transform="translate(-119.198 -91.155)" fill="#fff"/>
      </g>
    </g>
    <g id="Group_210" data-name="Group 210" transform="translate(57.796 16.72)">
      <g id="Group_209" data-name="Group 209">
        <path id="Path_239" data-name="Path 239" d="M312.892,79.265h-4.676a2.11,2.11,0,0,0,0,4.219h4.676a7.075,7.075,0,0,1,7.067,7.067v28.637a7.057,7.057,0,0,1-2.688,5.541v-5.517a8.945,8.945,0,0,0-7.3-8.79l-1.364-.254a9.52,9.52,0,0,0,.471-2.958v-4.848a9.56,9.56,0,1,0-19.119,0v4.848a9.526,9.526,0,0,0,.471,2.958l-1.364.254a8.944,8.944,0,0,0-7.3,8.79v6.116a7.07,7.07,0,0,1-3.574-6.139V90.552a7.075,7.075,0,0,1,7.067-7.067h5.028a2.11,2.11,0,0,0,0-4.219h-5.028a11.3,11.3,0,0,0-11.287,11.287v28.637a11.3,11.3,0,0,0,11.287,11.287h10.616v6.066a2.11,2.11,0,0,0,3.6,1.5l7.61-7.562h5.814a11.3,11.3,0,0,0,11.287-11.287V90.552A11.3,11.3,0,0,0,312.892,79.265Zm-18.716,23.1a5.34,5.34,0,1,1,10.681,0v4.848a5.34,5.34,0,1,1-10.681,0Zm18.876,23.89c-.053,0-.106,0-.16,0h-6.683a2.11,2.11,0,0,0-1.487.613l-4.63,4.6v-3.105a2.11,2.11,0,0,0-2.11-2.11h-12v-7.044a4.724,4.724,0,0,1,3.856-4.642l2.974-.555a9.54,9.54,0,0,0,13.41,0l2.974.555a4.724,4.724,0,0,1,3.856,4.642v7.04Z" transform="translate(-273.969 -79.265)" fill="#fff"/>
      </g>
    </g>
    <g id="Group_212" data-name="Group 212" transform="translate(79.947 16.721)">
      <g id="Group_211" data-name="Group 211">
        <path id="Path_240" data-name="Path 240" d="M382.581,79.887a2.108,2.108,0,1,0,.618,1.492A2.116,2.116,0,0,0,382.581,79.887Z" transform="translate(-378.98 -79.269)" fill="#fff"/>
      </g>
    </g>
    <g id="Group_214" data-name="Group 214" transform="translate(35.613 70.351)">
      <g id="Group_213" data-name="Group 213">
        <path id="Path_241" data-name="Path 241" d="M172.407,334.125a2.109,2.109,0,1,0,.618,1.492A2.122,2.122,0,0,0,172.407,334.125Z" transform="translate(-168.806 -333.507)" fill="#fff"/>
      </g>
    </g>
    <g id="Group_216" data-name="Group 216" transform="translate(0.006 20.767)">
      <g id="Group_215" data-name="Group 215" transform="translate(0)">
        <path id="Path_242" data-name="Path 242" d="M85.391,167.726,69.228,151.563a6.332,6.332,0,0,0-8.047-.749l-10.315,7.053a2.111,2.111,0,0,1-2.682-.25l-3.411-3.411a2.11,2.11,0,0,0-2.984,2.984L45.2,160.6a6.332,6.332,0,0,0,8.047.749L63.562,154.3a2.111,2.111,0,0,1,2.682.25l16.163,16.163a2.113,2.113,0,0,1,0,2.984,26.612,26.612,0,0,1-37.592,0L12,140.874a26.582,26.582,0,0,1,0-37.592,2.11,2.11,0,0,1,2.983,0l16.162,16.163a2.111,2.111,0,0,1,.25,2.682l-7.053,10.315a6.332,6.332,0,0,0,.749,8.047l5.128,5.128a2.11,2.11,0,0,0,2.984-2.984l-5.128-5.128a2.111,2.111,0,0,1-.25-2.682l7.053-10.316a6.333,6.333,0,0,0-.749-8.047L17.964,100.3a6.337,6.337,0,0,0-8.951,0,30.836,30.836,0,0,0,0,43.559l32.819,32.819a30.835,30.835,0,0,0,43.559,0A6.336,6.336,0,0,0,85.391,167.726Z" transform="translate(-0.006 -98.447)" fill="#fff"/>
      </g>
    </g>
    <g id="Group_218" data-name="Group 218" transform="translate(12.034 38.468)">
      <g id="Group_217" data-name="Group 217">
        <path id="Path_243" data-name="Path 243" d="M73.417,195.771,60.629,182.983a2.11,2.11,0,1,0-2.984,2.984l12.789,12.789a2.11,2.11,0,1,0,2.984-2.984Z" transform="translate(-57.027 -182.365)" fill="#fff"/>
      </g>
    </g>
    <g id="Group_220" data-name="Group 220" transform="translate(60.313 86.747)">
      <g id="Group_219" data-name="Group 219">
        <path id="Path_244" data-name="Path 244" d="M302.956,425.308,289.5,411.853a2.11,2.11,0,0,0-2.984,2.984l13.456,13.456a2.11,2.11,0,0,0,2.984-2.984Z" transform="translate(-285.898 -411.235)" fill="#fff"/>
      </g>
    </g>
  </g>
</svg>
