<svg xmlns="http://www.w3.org/2000/svg" width="69.317" height="58" viewBox="0 0 69.317 58">
  <g id="logo_child" transform="translate(0 -116.8)">
    <path id="Path_31" data-name="Path 31" d="M21.809,137.177a26.183,26.183,0,0,1,49.465-.015l.029.087h7.88v-.932l-3.277-.379a3.19,3.19,0,0,1-3-2.258l-.131-.277a29.024,29.024,0,0,0-52.465,0l-.131.277a3.207,3.207,0,0,1-3,2.258l-3.277.379v.947h7.88Z" transform="translate(-11.875 0)"/>
    <path id="Path_32" data-name="Path 32" d="M71.317,374.415l-.029.087a26.117,26.117,0,0,1-24.747,17.581h0a26.079,26.079,0,0,1-24.732-17.6l-.029-.087H13.9v.947l3.277.379a3.19,3.19,0,0,1,3,2.258l.131.277a29.088,29.088,0,0,0,26.233,16.619h0a29.074,29.074,0,0,0,26.233-16.6l.131-.277a3.207,3.207,0,0,1,3-2.258l3.277-.379v-.947Z" transform="translate(-11.875 -220.079)"/>
    <g id="Group_1" data-name="Group 1" transform="translate(0 141.765)">
      <rect id="Rectangle_5" data-name="Rectangle 5" width="1.792" height="8.069" transform="translate(13.983 0)"/>
      <path id="Path_33" data-name="Path 33" d="M10.036,296.269V288.2H8.244v6l-5.943-6H0v8.069H1.792V290.21l5.986,6.059Z" transform="translate(0 -288.2)"/>
      <path id="Path_34" data-name="Path 34" d="M313.64,288.2l-5.04,8.069h2.17l.9-1.442h5.87l.9,1.442H320.6l-5.04-8.069Zm2.971,5.1h-4.035l2.025-3.248Z" transform="translate(-263.651 -288.2)"/>
      <path id="Path_35" data-name="Path 35" d="M232.049,294.58a2.817,2.817,0,0,1-.364.015H224.5v1.66h7.3c.058,0,.481,0,.583-.015a2.374,2.374,0,0,0,2.17-2.462,2.34,2.34,0,0,0-2.054-2.432,5.148,5.148,0,0,0-.583-.029h-4.763a2.244,2.244,0,0,1-.524-.044.7.7,0,0,1-.51-.7.715.715,0,0,1,.524-.7,2.086,2.086,0,0,1,.5-.029h6.889V288.2h-6.991c-.291,0-.51.015-.7.029a2.379,2.379,0,0,0-.029,4.7,7.4,7.4,0,0,0,.757.029h4.646a2.257,2.257,0,0,1,.335.015.778.778,0,0,1,.714.8.86.86,0,0,1-.714.8" transform="translate(-191.629 -288.2)"/>
      <path id="Path_36" data-name="Path 36" d="M140.149,294.58a2.818,2.818,0,0,1-.364.015H132.6v1.66h7.3c.058,0,.481,0,.583-.015a2.374,2.374,0,0,0,2.17-2.462,2.34,2.34,0,0,0-2.054-2.432,5.148,5.148,0,0,0-.583-.029h-4.763a2.244,2.244,0,0,1-.524-.044.7.7,0,0,1-.51-.7.715.715,0,0,1,.524-.7,2.086,2.086,0,0,1,.5-.029h6.889V288.2h-6.991c-.291,0-.51.015-.7.029a2.379,2.379,0,0,0-.029,4.7,7.4,7.4,0,0,0,.757.029h4.646a2.258,2.258,0,0,1,.335.015.778.778,0,0,1,.714.8.892.892,0,0,1-.714.8" transform="translate(-113.115 -288.2)"/>
      <path id="Path_37" data-name="Path 37" d="M417.121,296.269V288.2h-1.777v6l-5.957-6H407.1v8.069h1.777V290.21l6,6.059Z" transform="translate(-347.804 -288.2)"/>
    </g>
  </g>
</svg>
