<svg xmlns="http://www.w3.org/2000/svg" width="28" height="28" viewBox="0 0 28 28">
  <path id="Path_63" data-name="Path 63" d="M14,0A14,14,0,1,0,28,14,14.03,14.03,0,0,0,14,0Zm0,3.336a10.681,10.681,0,0,1,10.538,9.023H21.693a6.449,6.449,0,0,1-4.7-1.986,4.1,4.1,0,0,0-5.983,0,6.449,6.449,0,0,1-4.7,1.986H3.462A10.681,10.681,0,0,1,14,3.336Zm0,13.945a2.461,2.461,0,1,1,2.461-2.461A2.464,2.464,0,0,1,14,17.281Zm-9.93.607a6.477,6.477,0,0,1,2.547-.607,4.926,4.926,0,0,1,4.866,5.66h0a4.905,4.905,0,0,1-.389,1.32A10.713,10.713,0,0,1,4.07,17.888Zm12.838,6.373a4.892,4.892,0,0,1-.389-1.32h0a4.928,4.928,0,0,1,6.035-5.52,11.985,11.985,0,0,1,1.378.467A10.713,10.713,0,0,1,16.908,24.261Z" fill="#fff"/>
</svg>
