<svg xmlns="http://www.w3.org/2000/svg" width="15.362" height="19.333" viewBox="0 0 15.362 19.333">
  <g id="price_tab" transform="translate(-52.59)">
    <path id="Path_45" data-name="Path 45" d="M63.282,0h-8.6a.791.791,0,0,0-.79.79V2.077h-.25A1.05,1.05,0,0,0,52.59,3.126V5.963a1.05,1.05,0,0,0,1.049,1.049h.25V18.543a.791.791,0,0,0,.79.79H67.162a.791.791,0,0,0,.79-.79V15.288a.283.283,0,0,0-.566,0v3.255a.224.224,0,0,1-.224.224H54.68a.224.224,0,0,1-.224-.224V5.48h1.227a.283.283,0,1,0,0-.566H53.639a1.043,1.043,0,0,0-.483.118V3.126a.483.483,0,0,1,.483-.483h4.428a.483.483,0,0,1,.483.483V4.431a.483.483,0,0,1-.483.483H57a.283.283,0,1,0,0,.566h1.063a1.05,1.05,0,0,0,1.049-1.049V3.126a1.05,1.05,0,0,0-1.049-1.049H54.456V.79A.224.224,0,0,1,54.68.566h8.357A1.637,1.637,0,0,1,64.672,2.2V2.49a.791.791,0,0,0,.79.79h.288a1.637,1.637,0,0,1,1.636,1.636v9.051a.283.283,0,0,0,.566,0V4.67A4.675,4.675,0,0,0,63.282,0ZM53.639,5.48h.25v.965h-.25a.483.483,0,1,1,0-.965ZM65.75,2.713h-.288a.224.224,0,0,1-.224-.224V2.2A2.191,2.191,0,0,0,64.77.845a4.126,4.126,0,0,1,2.337,2.337,2.191,2.191,0,0,0-1.357-.469Z" fill="#c3002f"/>
    <path id="Path_46" data-name="Path 46" d="M127.669,179.6a.662.662,0,0,0-.661.661v9.72a.662.662,0,0,0,.661.661h9.72a.662.662,0,0,0,.661-.661v-9.72a.662.662,0,0,0-.661-.661Zm6.152,2.43h.792v1.156h-2.3v-1.156h.191a.283.283,0,1,0,0-.566h-.191v-1.3h2.3v1.3h-.792a.283.283,0,1,0,0,.566Zm-1.512,6.323V187.2h2.3v1.156Zm2.3.566v1.156h-2.3v-1.156Zm-5.741-3.445v1.156h-1.3v-1.156Zm-1.3-.566v-1.156h1.3v1.156Zm1.863.566h2.3v1.156h-2.3Zm2.87,0h2.3v1.156h-2.3Zm2.87,0h2.3v1.156h-2.3Zm0-.566v-1.156h2.3v1.156Zm-.566,0h-2.3v-1.156h2.3Zm-2.87,0h-2.3v-1.156h2.3Zm-2.3-1.722v-1.156h2.3v1.156Zm0-1.722v-1.3h2.3v1.3Zm-.566,1.722h-1.3v-1.156h1.3Zm-1.3,4.011h1.3v1.156h-1.3Zm1.863,0h2.3v1.156h-2.3Zm5.741,0h2.3v1.156h-2.3Zm2.3-4.011h-2.3v-1.156h2.3Zm-9.908-2.925a.1.1,0,0,1,.094-.094h1.2v1.3h-1.3Zm0,9.72v-1.061h1.3v1.156h-1.2a.1.1,0,0,1-.094-.094Zm1.863-1.061h2.3v1.156h-2.3Zm7.951,1.156h-2.21v-1.156h2.3v1.061A.1.1,0,0,1,137.388,190.074Zm.094-9.814v1.2h-2.3v-1.3h2.21A.1.1,0,0,1,137.483,180.26Z" transform="translate(-71.608 -172.817)" fill="#c3002f"/>
  </g>
</svg>
