<?xml version="1.0" encoding="utf-8"?>
<!-- Generator: Adobe Illustrator 25.0.0, SVG Export Plug-In . SVG Version: 6.00 Build 0)  -->
<svg version="1.1" id="Capa_1" xmlns="http://www.w3.org/2000/svg" xmlns:xlink="http://www.w3.org/1999/xlink" x="0px" y="0px"
	 viewBox="0 0 32 32" style="enable-background:new 0 0 32 32;" xml:space="preserve" preserveAspectRatio="xMinYMid" width="32" height="32">
<g>
	<path d="M16,0C7.2,0,0,7.2,0,16s7.2,16,16,16s16-7.2,16-16S24.8,0,16,0z M16,30.4C8,30.4,1.6,24,1.6,16S8,1.6,16,1.6
		S30.4,8,30.4,16S24,30.4,16,30.4z"/>
	<polygon points="17,12.3 15,12.3 15,15 12.3,15 12.3,17 15,17 15,19.7 17,19.7 17,17 19.7,17 19.7,15 17,15 	"/>
</g>
</svg>
