<svg width="40" height="40" viewBox="0 0 40 40" fill="none" xmlns="http://www.w3.org/2000/svg">
<g clip-path="url(#clip0_2427_166)">
<path d="M20 0C9 0 0 9 0 20C0 31 9 40 20 40C31 40 40 31 40 20C40 9 31 0 20 0ZM20 38C10 38 2 30 2 20C2 10 10 2 20 2C30 2 38 10 38 20C38 30 30 38 20 38Z" fill="white"/>
<path d="M21.25 15.375H18.75V18.75H15.375V21.25H18.75V24.625H21.25V21.25H24.625V18.75H21.25V15.375Z" fill="white"/>
</g>
<defs>
<clipPath id="clip0_2427_166">
<rect width="40" height="40" fill="white"/>
</clipPath>
</defs>
</svg>
