<svg width="32" height="32" viewBox="0 0 32 32" fill="none" xmlns="http://www.w3.org/2000/svg">
<g clip-path="url(#clip0_2427_166)">
<path d="M16 0C7.2 0 0 7.2 0 16C0 24.8 7.2 32 16 32C24.8 32 32 24.8 32 16C32 7.2 24.8 0 16 0ZM16 30.4C8 30.4 1.6 24 1.6 16C1.6 8 8 1.6 16 1.6C24 1.6 30.4 8 30.4 16C30.4 24 24 30.4 16 30.4Z" fill="white"/>
<path d="M17 12.2998H15V14.9998H12.3V16.9998H15V19.6998H17V16.9998H19.7V14.9998H17V12.2998Z" fill="white"/>
</g>
<defs>
<clipPath id="clip0_2427_166">
<rect width="32" height="32" fill="white"/>
</clipPath>
</defs>
</svg>
