<svg id="steering-wheel" xmlns="http://www.w3.org/2000/svg" width="48" height="48" viewBox="0 0 48 48">
  <path id="Path_63" data-name="Path 63" d="M24,0A24,24,0,1,0,48,24,24.052,24.052,0,0,0,24,0Zm0,5.719A18.31,18.31,0,0,1,42.065,21.188H37.188a11.055,11.055,0,0,1-8.06-3.4,7.036,7.036,0,0,0-10.256,0,11.055,11.055,0,0,1-8.06,3.4H5.935A18.31,18.31,0,0,1,24,5.719Zm0,23.906a4.219,4.219,0,1,1,4.219-4.219A4.224,4.224,0,0,1,24,29.625ZM6.977,30.665a11.1,11.1,0,0,1,4.367-1.04,8.445,8.445,0,0,1,8.342,9.7h0a8.409,8.409,0,0,1-.666,2.264A18.365,18.365,0,0,1,6.977,30.665ZM28.985,41.59a8.387,8.387,0,0,1-.667-2.263h0A8.447,8.447,0,0,1,38.66,29.864a20.544,20.544,0,0,1,2.363.8A18.365,18.365,0,0,1,28.985,41.59Z" fill="#c3002f"/>
</svg>
