<svg xmlns="http://www.w3.org/2000/svg" width="38" height="48" viewBox="0 0 38 48">
  <g id="Group_3" data-name="Group 3" transform="translate(-513 -1684)">
    <path id="Union_1" data-name="Union 1" d="M5.891,33.1A19.243,19.243,0,0,1,19,0,19.243,19.243,0,0,1,32.108,33.1L19,48Z" transform="translate(513 1684)" fill="#c3002f"/>
    <g id="nissan-next-logo-black" transform="translate(517 1574.399)">
      <path id="Path_31" data-name="Path 31" d="M17.255,125.443a11.106,11.106,0,0,1,20.981-.006l.012.037H41.59v-.4l-1.39-.161a1.353,1.353,0,0,1-1.273-.958l-.056-.117a12.311,12.311,0,0,0-22.253,0l-.056.117a1.36,1.36,0,0,1-1.273.958l-1.39.161v.4h3.342Z" transform="translate(-13.041)" fill="#fff"/>
      <path id="Path_32" data-name="Path 32" d="M38.254,374.406l-.012.037a11.078,11.078,0,0,1-10.5,7.457h0a11.061,11.061,0,0,1-10.49-7.463l-.012-.037H13.9v.4l1.39.161a1.353,1.353,0,0,1,1.273.958l.056.117a12.338,12.338,0,0,0,11.127,7.049h0a12.332,12.332,0,0,0,11.127-7.043l.056-.117a1.36,1.36,0,0,1,1.273-.958l1.39-.161v-.4Z" transform="translate(-13.041 -241.685)" fill="#fff"/>
      <g id="Group_1" data-name="Group 1" transform="translate(0 127.389)">
        <rect id="Rectangle_5" data-name="Rectangle 5" width="0.76" height="3.423" transform="translate(5.931 0)" fill="#fff"/>
        <path id="Path_33" data-name="Path 33" d="M4.257,291.623V288.2H3.5v2.545L.976,288.2H0v3.423H.76v-2.57l2.539,2.57Z" transform="translate(0 -288.2)" fill="#fff"/>
        <path id="Path_34" data-name="Path 34" d="M310.738,288.2l-2.138,3.423h.921l.383-.612h2.49l.383.612h.914l-2.138-3.423Zm1.26,2.162h-1.711l.859-1.378Z" transform="translate(-289.535 -288.2)" fill="#fff"/>
        <path id="Path_35" data-name="Path 35" d="M227.587,290.906a1.194,1.194,0,0,1-.154.006h-3.046v.7h3.1c.025,0,.2,0,.247-.006a1.007,1.007,0,0,0,.921-1.044.993.993,0,0,0-.871-1.032,2.189,2.189,0,0,0-.247-.012h-2.02a.951.951,0,0,1-.222-.019.3.3,0,0,1-.216-.3.3.3,0,0,1,.222-.3.888.888,0,0,1,.21-.012h2.922v-.7h-2.965c-.124,0-.216.006-.3.012a1.009,1.009,0,0,0-.012,2,3.139,3.139,0,0,0,.321.012h1.971a.961.961,0,0,1,.142.006.33.33,0,0,1,.3.34.365.365,0,0,1-.3.34" transform="translate(-210.443 -288.2)" fill="#fff"/>
        <path id="Path_36" data-name="Path 36" d="M135.687,290.906a1.2,1.2,0,0,1-.154.006h-3.046v.7h3.1c.025,0,.2,0,.247-.006a1.007,1.007,0,0,0,.921-1.044.993.993,0,0,0-.871-1.032,2.189,2.189,0,0,0-.247-.012h-2.02a.951.951,0,0,1-.222-.019.3.3,0,0,1-.216-.3.3.3,0,0,1,.222-.3.888.888,0,0,1,.21-.012h2.922v-.7h-2.965c-.124,0-.216.006-.3.012a1.009,1.009,0,0,0-.012,2,3.14,3.14,0,0,0,.321.012h1.971a.961.961,0,0,1,.142.006.33.33,0,0,1,.3.34.378.378,0,0,1-.3.34" transform="translate(-124.22 -288.2)" fill="#fff"/>
        <path id="Path_37" data-name="Path 37" d="M411.35,291.623V288.2H410.6v2.545L408.07,288.2h-.97v3.423h.754v-2.57l2.545,2.57Z" transform="translate(-381.949 -288.2)" fill="#fff"/>
      </g>
    </g>
  </g>
</svg>
